General
Complete name                    : D:\Videos\Shows Rip\Gusttavo Lima - Inventor dos Amores (2010) DvdRip.avi
Format                           : AVI
Format/Info                      : Audio Video Interleave
Format profile                   : OpenDML
File size                        : 1.65 GiB
Duration                         : 1h 22mn
Overall bit rate                 : 2 844 Kbps
Writing application              : MEncoder SVN-r30881(20100311-gcc4.3.3)
Writing library                  : MPlayer

Video
ID                               : 0
Format                           : MPEG-4 Visual
Format profile                   : Advanced Simple@L5
Format settings, BVOP            : Yes
Format settings, QPel            : No
Format settings, GMC             : No warppoints
Format settings, Matrix          : Default (H.263)
Codec ID                         : XVID
Codec ID/Hint                    : XviD
Duration                         : 1h 22mn
Bit rate                         : 2 390 Kbps
Width                            : 720 pixels
Height                           : 480 pixels
Display aspect ratio             : 16:9
Frame rate                       : 24.000 fps
Standard                         : NTSC
Color space                      : YUV
Chroma subsampling               : 4:2:0
Bit depth                        : 8 bits
Scan type                        : Progressive
Compression mode                 : Lossy
Bits/(Pixel*Frame)               : 0.288
Stream size                      : 1.38 GiB (84%)
Writing library                  : XviD 1.2.1 (UTC 2008-12-04)

Audio
ID                               : 1
Format                           : AC-3
Format/Info                      : Audio Coding 3
Mode extension                   : CM (complete main)
Codec ID                         : 2000
Duration                         : 1h 22mn
Bit rate mode                    : Constant
Bit rate                         : 448 Kbps
Channel(s)                       : 2 channels
Channel positions                : Front: L R
Sampling rate                    : 48.0 KHz
Bit depth                        : 16 bits
Compression mode                 : Lossy
Video delay                      : 42ms
Stream size                      : 266 MiB (16%)
Alignment                        : Split accross interleaves
Interleave, duration             : 500 ms (12.00 video frames)
Interleave, preload duration     : 500 ms




1. Caso Consumado
2. Calafrio
3. Me Deixe Em Paz
4. Pot-Pourri: Coração / Revelação
5. Prazo De Validade
6. Super Homem Part. Esp.: Edson
7. Cor De Ouro
8. Arrasta
9. Rosas, Versos E Vinho
10. Larguei De Ser Besta Part. Esp.: Guilherme & Santiago
11. Refém
12. Tornado
13. Pot-Pourri:Na Hora H/Passou Da Conta/Me Apaixonei(APrimeira Vez Que Eu Te Vi)/Da Boca Pra Fora
14. Amor De Primavera
15. Inventor Dos Amores Part. Esp.: Jorge & Mateus
16. É Sempre Assim
17. O Nosso Amor Venceu
18. Eu Te Quero Sim Part. Esp.: Maria Cecília & Rodolfo
19. Pode Ir Embora
20. O Mundo É Uma Bola
21. Eu Volto Pra Você
22. Furacão Part. Esp.: Humberto & Ronaldo
23. Se Não Quer Me Amar
24. Pot-Pourri:Coração/Revelação